<?xml version="1.0" encoding="UTF-8" standalone="no"?>
<!DOCTYPE svg PUBLIC "-//W3C//DTD SVG 1.1//EN" "http://www.w3.org/Graphics/SVG/1.1/DTD/svg11.dtd">
<svg xmlns="http://www.w3.org/2000/svg" version="1.1" viewBox="0.00 0.00 715.00 392.00">
<path fill="#eeeeee" d="
  M 129.05 178.81
  A 1.16 1.16 0.0 0 0 130.21 179.99
  L 438.23 180.01
  A 0.83 0.83 0.0 0 0 438.97 178.79
  Q 436.98 175.02 435.32 170.82
  Q 426.38 148.33 417.21 125.93
  Q 410.14 108.65 402.68 91.54
  Q 399.62 84.51 395.23 78.24
  C 387.25 66.87 371.13 65.01 358.44 64.64
  A 2.55 2.55 0.0 0 1 355.97 62.17
  L 355.95 61.48
  Q 355.85 58.33 358.99 58.25
  C 387.90 57.48 413.86 59.69 440.00 58.48
  C 451.54 57.94 461.31 58.03 472.00 58.03
  C 474.70 58.03 479.60 59.21 477.41 63.41
  Q 476.67 64.83 473.92 64.85
  C 467.54 64.89 460.05 64.48 455.79 69.05
  Q 452.34 72.76 453.32 77.50
  Q 455.34 87.22 460.36 100.26
  C 466.14 115.28 471.99 130.28 477.46 145.44
  C 480.67 154.33 484.51 163.18 487.58 171.88
  Q 489.59 177.58 491.61 183.21
  A 0.57 0.56 80.1 0 1 491.08 183.97
  Q 285.50 184.03 80.00 183.98
  Q 76.17 183.98 68.99 183.47
  C 51.51 182.25 34.16 183.55 16.64 182.03
  Q 16.08 181.98 16.12 181.41
  L 16.14 181.12
  Q 16.17 180.83 16.45 180.86
  Q 21.72 181.33 27.03 181.22
  C 39.66 180.93 52.27 181.04 64.90 180.99
  C 68.26 180.98 71.72 180.14 75.22 179.97
  A 0.64 0.64 0.0 0 0 75.83 179.39
  Q 76.46 172.43 78.04 165.50
  C 88.88 117.76 122.00 80.42 167.79 63.78
  Q 191.16 55.29 216.00 53.50
  C 225.12 52.84 234.40 52.06 243.34 52.15
  Q 279.87 52.52 310.00 58.23
  Q 330.39 62.09 338.26 63.25
  Q 340.87 63.63 341.05 66.75
  Q 341.28 71.11 340.22 82.11
  C 338.57 99.11 339.78 116.03 338.21 133.00
  C 338.03 134.99 337.25 138.28 334.99 138.89
  C 332.58 139.53 330.58 139.18 330.42 136.25
  C 329.56 121.06 324.96 105.82 314.38 94.87
  C 308.11 88.38 296.43 82.53 288.14 79.65
  C 274.80 75.03 260.10 72.41 246.00 72.01
  C 226.27 71.44 207.92 72.05 188.75 79.71
  C 161.72 90.52 143.00 116.33 135.18 143.67
  Q 130.74 159.18 129.65 176.34
  C 129.60 177.20 129.06 178.04 129.05 178.81
  Z"
/>
<path fill="#eeeeee" d="
  M 598.77 179.99
  C 601.92 179.88 604.85 180.88 607.73 180.89
  Q 629.24 180.93 650.75 181.00
  Q 654.72 181.01 658.69 181.29
  Q 659.13 181.32 658.78 181.59
  Q 658.11 182.08 657.50 182.10
  C 654.25 182.20 650.83 182.73 647.83 182.79
  Q 630.67 183.14 613.50 183.01
  C 608.45 182.97 602.86 183.74 598.49 183.83
  Q 584.38 184.13 569.98 183.92
  Q 568.83 183.90 568.94 182.76
  Q 569.00 182.08 569.48 180.84
  Q 576.00 164.01 582.56 147.19
  Q 589.96 128.22 597.64 109.37
  C 600.51 102.31 603.19 94.61 606.04 87.25
  C 608.26 81.54 612.65 68.85 603.48 66.64
  Q 595.36 64.68 586.99 64.68
  C 580.05 64.67 580.55 58.41 587.53 58.21
  Q 606.66 57.68 618.50 58.30
  Q 637.58 59.31 651.75 58.21
  Q 658.38 57.70 674.54 58.11
  A 3.52 3.52 0.0 0 1 677.92 61.07
  L 678.01 61.64
  A 2.35 2.34 82.0 0 1 675.99 64.33
  C 667.29 65.42 660.68 64.82 652.99 69.62
  Q 649.68 71.69 646.74 75.67
  C 640.97 83.45 637.37 91.60 633.23 100.26
  C 630.57 105.83 628.61 111.58 625.96 117.26
  C 624.04 121.36 622.38 126.13 620.79 129.76
  Q 607.26 160.55 600.22 175.48
  Q 598.99 178.08 598.31 179.21
  A 0.51 0.51 0.0 0 0 598.77 179.99
  Z"
/>
<path fill="#eeeeee" d="
  M 458.28 227.00
  L 133.51 227.00
  Q 131.75 227.00 132.16 228.71
  C 135.29 241.67 139.29 254.10 145.83 265.88
  Q 170.87 310.99 220.24 327.53
  Q 225.24 329.20 234.01 330.58
  C 249.19 332.97 263.26 332.05 279.63 330.36
  C 308.04 327.43 328.57 309.59 334.38 281.41
  C 334.91 278.88 337.73 275.46 340.63 277.82
  C 342.55 279.39 342.39 284.16 342.12 286.36
  C 340.21 301.87 337.95 317.55 334.34 332.76
  C 333.30 337.10 331.41 341.71 327.23 343.93
  Q 321.57 346.94 316.50 348.20
  C 298.08 352.77 281.28 353.80 261.50 354.76
  C 247.27 355.45 229.27 354.01 214.80 352.21
  C 149.16 344.06 90.96 303.40 77.95 235.63
  C 77.52 233.40 76.85 231.90 77.04 229.25
  A 2.06 2.05 -84.5 0 0 75.25 227.07
  C 71.24 226.58 67.32 225.99 63.24 225.99
  Q 39.83 225.99 16.46 226.00
  A 0.47 0.46 88.0 0 1 16.00 225.56
  L 15.98 225.29
  Q 15.97 225.11 16.15 225.09
  C 30.54 223.51 43.53 223.95 64.49 224.00
  C 68.52 224.01 72.27 223.00 76.18 223.00
  Q 290.64 223.00 505.84 223.00
  Q 506.97 223.00 507.37 224.06
  L 528.33 279.79
  A 0.77 0.76 45.6 0 0 529.76 279.81
  L 552.14 223.78
  A 1.24 1.06 -77.6 0 1 553.18 223.00
  C 570.31 223.01 587.80 222.19 604.59 223.55
  C 615.64 224.45 626.98 224.01 638.07 224.01
  C 645.42 224.00 652.55 224.56 659.75 225.12
  Q 660.91 225.21 659.78 225.49
  C 656.70 226.28 652.72 225.76 650.46 225.79
  Q 634.39 226.05 618.31 226.03
  C 606.68 226.01 592.68 227.33 579.75 226.91
  Q 578.83 226.88 577.93 227.07
  Q 577.45 227.17 577.19 227.60
  C 575.60 230.33 574.49 233.87 573.54 236.04
  Q 551.94 285.58 530.38 335.14
  Q 529.00 338.32 524.30 347.53
  C 517.13 361.56 510.28 352.43 506.60 343.31
  Q 497.63 321.13 488.45 299.04
  Q 475.69 268.33 463.00 237.60
  Q 460.94 232.60 459.03 227.52
  A 0.81 0.80 79.3 0 0 458.28 227.00
  Z"
/>
</svg>
